<svg id="Lager_1" data-name="Lager 1" xmlns="http://www.w3.org/2000/svg" viewBox="0 0 179.04 126.96"><defs><style>.cls-1{fill:#fff;}</style></defs><path class="cls-1" d="M297.58,438.14a1.87,1.87,0,0,1-1.12,1,6.17,6.17,0,0,1-1.83.39c-.69.06-1.25.09-1.67.09h-.48a16.73,16.73,0,0,0-2.76,3,17.18,17.18,0,0,0-2.33,4.5c-.64,1.7-1.3,3.47-2,5.33s-1.36,3.8-2,5.81q-1.28,4.14-2.87,8.12-1,2.87-2,5.81t-2,6L275,482.88q-.8,2.39-1.59,4.61c-.64,1.81-1.28,3.61-1.91,5.42s-1.22,3.61-1.75,5.41a22.72,22.72,0,0,1-.72,2.31,18.59,18.59,0,0,0-.72,2.31q-.94,2.87-1.91,5.73t-2.07,5.73q-1.28,3.18-2.38,6.29c-.75,2.07-1.49,4.16-2.23,6.29a24,24,0,0,1-.8,2.54,21,21,0,0,0-.8,2.71,25.87,25.87,0,0,0-1,3.74c-.27,1.33-.5,2.68-.72,4.06s-.61,2.76-.87,4.14a30.92,30.92,0,0,1-1,4c-.1.53-.26,1.51-.47,3s-.48,2.92-.8,4.45a23.24,23.24,0,0,1-1.27,4.22c-.54,1.28-1.12,1.91-1.76,1.91l-2.86.32a19.64,19.64,0,0,1-1.35-2.55,14.72,14.72,0,0,1-.88-2.54l-2.55-7.49-4.06-11.86c-1.33-3.87-2.62-7.82-3.9-11.86q-1.75-5.57-3.26-11.38t-3-11.86c-.53-2.23-1.11-4.48-1.75-6.77s-1.27-4.59-1.91-6.92q-1.59-5.58-3-11.62c-1-4-2-8.49-3.19-13.38-.21-.84-.45-1.64-.71-2.38A24.07,24.07,0,0,1,217,459a2.7,2.7,0,0,1-.16-.88,2.64,2.64,0,0,0-.16-.87,65.07,65.07,0,0,0-2.7-7,2.3,2.3,0,0,1-.32-.95q-.33,8.91,0,18.46c0,2.87,0,5.73.08,8.6s.08,5.84.08,8.92a60.2,60.2,0,0,0,0,8.91v7c0,2.33-.06,4.88-.16,7.64a36.47,36.47,0,0,0-.24,5.57c.05,1.91.13,3.77.24,5.57,0,1.17,0,2.31.08,3.43s.08,2.25.08,3.42l-.16,4.93q-.17,3.51-.24,6.85c-.06,2.23,0,4.4.08,6.53,0,1,0,1.83.08,2.62s.13,1.62.24,2.47c.1,1.06.21,2.12.31,3.18a32.71,32.71,0,0,1,.16,3.35h.8c.64,0,1.25,0,1.83.08a5.59,5.59,0,0,1,1.67.4l.8,1.91a3.05,3.05,0,0,1-2.07,2,12.35,12.35,0,0,1-1.75.23,2.29,2.29,0,0,1-.64-.08,2.73,2.73,0,0,0-.64-.07h-3.18c-.85.1-1.75.18-2.71.23a4.81,4.81,0,0,1-3-1l-.16-2.23a3.36,3.36,0,0,1,2-1.19,6.69,6.69,0,0,1,2.31-.08h.32q-.81-9.07-.72-17.44t.24-17.11c.1-2.65.16-5.31.16-8V494q0-6.21-.16-12.42,0-10.5-.08-21t.08-20.54a1.87,1.87,0,0,0-.8.16,12.76,12.76,0,0,1-2.39.32,2.48,2.48,0,0,1-1.83-.56,6.71,6.71,0,0,1-.87-1V437.5a2.8,2.8,0,0,1,2-1.43l2.31-.32.79-.15a9,9,0,0,0,2.07-.17,7.89,7.89,0,0,0,1-.07,6.36,6.36,0,0,1,1-.08l1.43,1.11a2,2,0,0,1,0,1.59c.32.85.67,1.78,1,2.79s.72,2,1,3.1q.79,2.38,1.68,4.7c.58,1.54,1.13,3,1.67,4.38a56.52,56.52,0,0,1,2.15,6.52q.87,3.34,1.67,6.53l.48,1.91c.31,1.06.58,2.1.79,3.11s.42,2.09.64,3.26c.21,1.49.48,3,.79,4.62a33,33,0,0,0,1.28,4.61q1.42,4.62,2.63,9.4t2.46,9.55q.79,3,1.52,6c.47,2,1,3.95,1.51,6q2.38,8.6,5.33,17T246.63,548l1.75,5.1c.74-2.13,1.41-4.3,2-6.53s1.14-4.51,1.67-6.85,1.09-4.46,1.68-6.68,1.19-4.46,1.83-6.69l.95-2.71c.43-1.27.82-2.57,1.2-3.9a34.59,34.59,0,0,1,1.35-3.9q2.07-4.77,3.74-9.71t3.42-10.19c.53-1.38,1-2.73,1.36-4.06s.82-2.68,1.35-4.06l1.59-4.45,1.59-4.46c.32-.85.61-1.67.88-2.47s.5-1.62.72-2.47c.21-.63.39-1.27.55-1.91s.35-1.27.56-1.91q1.44-4.45,2.95-8.75c1-2.87,2-5.74,3.1-8.6l1.43-3.82a32.93,32.93,0,0,1,1.6-4.46,30.08,30.08,0,0,1,1.91-4.3q1.11-2.07,2.38-4.3l1.75-.63a2.29,2.29,0,0,1,.64.08,2.73,2.73,0,0,0,.64.07,6,6,0,0,0,1-.07,5.18,5.18,0,0,1,1-.08,3.36,3.36,0,0,1,2.23-.08C296.76,435.66,297.92,437.18,297.58,438.14Z" transform="translate(-203.49 -435.05)"/><path class="cls-1" d="M290.67,435.2a3.36,3.36,0,0,1,2.23.08,5.18,5.18,0,0,1,1,.08,6,6,0,0,0,.95.07,2.73,2.73,0,0,0,.64-.07,2.29,2.29,0,0,1,.64-.08l1.75.63q1.28,2.23,2.38,4.3a29,29,0,0,1,1.91,4.3,32.93,32.93,0,0,1,1.6,4.46l1.43,3.82c1.06,2.86,2.1,5.73,3.1,8.6s2,5.78,2.95,8.75c.21.64.4,1.28.56,1.91s.34,1.28.55,1.91c.22.85.46,1.67.72,2.47s.56,1.62.88,2.47l1.59,4.46,1.59,4.45c.53,1.38,1,2.74,1.35,4.06s.83,2.68,1.36,4.06q1.76,5.25,3.42,10.19t3.74,9.71a34.59,34.59,0,0,1,1.35,3.9c.38,1.33.77,2.63,1.2,3.9l1,2.71q1,3.35,1.83,6.69t1.68,6.68q.79,3.51,1.67,6.85c.58,2.23,1.25,4.4,2,6.53l1.75-5.1q2.87-8.12,5.81-16.55t5.33-17q.8-3,1.52-6c.47-2,1-3.95,1.51-6q1.28-4.77,2.47-9.55t2.62-9.4a33,33,0,0,0,1.28-4.61c.31-1.59.58-3.13.79-4.62.22-1.17.43-2.25.64-3.26s.48-2,.79-3.11l.48-1.91q.8-3.18,1.67-6.53a56.52,56.52,0,0,1,2.15-6.52c.54-1.38,1.09-2.84,1.67-4.38s1.15-3.11,1.68-4.7c.31-1.06.66-2.09,1-3.1s.72-1.94,1-2.79a2,2,0,0,1,0-1.59l1.43-1.11a6.36,6.36,0,0,1,1,.08,7.89,7.89,0,0,0,1,.07,9,9,0,0,0,2.07.17l.79.15,2.31.32a2.8,2.8,0,0,1,2,1.43v1.44a6.71,6.71,0,0,1-.87,1,2.48,2.48,0,0,1-1.83.56,12.76,12.76,0,0,1-2.39-.32,1.87,1.87,0,0,0-.8-.16q.17,10,.08,20.54t-.08,21q-.15,6.21-.16,12.42V514.4c0,2.65.06,5.31.16,8q.17,8.76.24,17.11t-.72,17.44h.32a6.69,6.69,0,0,1,2.31.08,3.36,3.36,0,0,1,2,1.19l-.16,2.23a4.81,4.81,0,0,1-3,1c-1-.05-1.86-.13-2.71-.23h-3.18a2.73,2.73,0,0,0-.64.07,2.29,2.29,0,0,1-.64.08,12.35,12.35,0,0,1-1.75-.23,3.05,3.05,0,0,1-2.07-2l.8-1.91a5.59,5.59,0,0,1,1.67-.4c.58-.05,1.19-.08,1.83-.08h.8a32.71,32.71,0,0,1,.16-3.35c.1-1.06.21-2.12.31-3.18.11-.85.19-1.67.24-2.47s.08-1.67.08-2.62c.11-2.13.14-4.3.08-6.53s-.13-4.51-.24-6.85l-.16-4.93c0-1.17,0-2.31.08-3.42s.08-2.26.08-3.43c.11-1.8.19-3.66.24-5.57a36.47,36.47,0,0,0-.24-5.57c-.1-2.76-.16-5.31-.16-7.64v-7a60.2,60.2,0,0,0,0-8.91q0-4.62.08-8.92c.06-2.87.08-5.73.08-8.6q.33-9.54,0-18.46a2.3,2.3,0,0,1-.32.95,65.07,65.07,0,0,0-2.7,7,2.64,2.64,0,0,0-.16.87,2.7,2.7,0,0,1-.16.88,24.07,24.07,0,0,1-.72,2.39c-.26.74-.5,1.54-.71,2.38-1.17,4.89-2.23,9.34-3.19,13.38s-2,7.9-3,11.62q-1,3.5-1.91,6.92c-.64,2.29-1.22,4.54-1.75,6.77q-1.44,6-2.95,11.86t-3.26,11.38c-1.28,4-2.57,8-3.9,11.86l-4.06,11.86L341,556.91a14.72,14.72,0,0,1-.88,2.54,19.64,19.64,0,0,1-1.35,2.55l-2.86-.32c-.64,0-1.22-.63-1.76-1.91a23.24,23.24,0,0,1-1.27-4.22c-.32-1.53-.58-3-.8-4.45s-.37-2.42-.47-3a30.92,30.92,0,0,1-1-4q-.39-2.07-.87-4.14c-.21-1.38-.45-2.73-.72-4.06a25.87,25.87,0,0,0-1-3.74,21,21,0,0,0-.8-2.71,24,24,0,0,1-.8-2.54c-.74-2.13-1.48-4.22-2.23-6.29s-1.53-4.17-2.38-6.29c-.74-1.91-1.44-3.82-2.07-5.73s-1.28-3.82-1.91-5.73a18.59,18.59,0,0,0-.72-2.31,22.72,22.72,0,0,1-.72-2.31c-.53-1.8-1.11-3.61-1.75-5.41s-1.27-3.61-1.91-5.42q-.79-2.22-1.59-4.61l-1.59-4.78q-1-3-2-6t-2-5.81q-1.59-4-2.87-8.12c-.63-2-1.3-3.95-2-5.81s-1.35-3.63-2-5.33a17.18,17.18,0,0,0-2.33-4.5,16.73,16.73,0,0,0-2.76-3h-.48c-.42,0-1,0-1.67-.09a6.17,6.17,0,0,1-1.83-.39,1.87,1.87,0,0,1-1.12-1C288.1,437.18,289.26,435.66,290.67,435.2Z" transform="translate(-203.49 -435.05)"/></svg>